<svg width="324" height="34" viewBox="0 0 324 34" fill="none" xmlns="http://www.w3.org/2000/svg">
<path d="M11.96 33.96C9.4 33.96 7.176 33.512 5.288 32.616C3.432 31.688 1.816 30.136 0.44 27.96L1.4 27.24C3.8 30.44 7.08 32.04 11.24 32.04C13.8 32.04 15.832 31.432 17.336 30.216C18.872 28.968 19.64 27.256 19.64 25.08C19.64 22.744 18.856 20.968 17.288 19.752C15.752 18.504 13.496 17.88 10.52 17.88H6.92V15.96H10.52C12.792 15.96 14.712 15.352 16.28 14.136C17.88 12.888 18.68 11.176 18.68 9C18.68 6.856 17.96 5.208 16.52 4.056C15.112 2.872 13.432 2.28 11.48 2.28C9.176 2.28 7.224 2.968 5.624 4.344C4.056 5.688 2.968 7.56 2.36 9.96H1.4C1.4 8.2 1.464 6.888 1.592 6.024C1.72 5.16 2.056 4.392 2.6 3.72C3.4 2.728 4.68 1.928 6.44 1.32C8.232 0.679999 9.992 0.36 11.72 0.36C14.888 0.36 17.592 0.983999 19.832 2.232C22.104 3.48 23.24 5.816 23.24 9.24C23.24 10.872 22.68 12.344 21.56 13.656C20.44 14.968 18.76 15.976 16.52 16.68C19.368 17.224 21.4 18.184 22.616 19.56C23.832 20.936 24.44 22.696 24.44 24.84C24.44 28.168 23.192 30.52 20.696 31.896C18.2 33.272 15.288 33.96 11.96 33.96ZM38.615 33.48C36.439 33.48 34.599 32.968 33.095 31.944C31.591 30.888 30.455 29.48 29.687 27.72C28.919 25.928 28.535 23.928 28.535 21.72C28.535 19.544 28.919 17.56 29.687 15.768C30.455 13.976 31.559 12.568 32.999 11.544C34.471 10.488 36.183 9.96 38.135 9.96C41.367 9.96 43.767 10.872 45.335 12.696C46.935 14.488 47.735 17.096 47.735 20.52L47.639 22.44H33.095C33.095 25.128 33.671 27.32 34.823 29.016C35.975 30.712 37.559 31.56 39.575 31.56C41.079 31.56 42.343 31.24 43.367 30.6C44.423 29.96 45.399 29 46.295 27.72L47.255 28.44C46.199 30.2 44.967 31.48 43.559 32.28C42.151 33.08 40.503 33.48 38.615 33.48ZM43.175 20.52C43.175 17.704 42.759 15.56 41.927 14.088C41.095 12.616 39.831 11.88 38.135 11.88C37.175 11.88 36.311 12.264 35.543 13.032C34.775 13.768 34.167 14.792 33.719 16.104C33.303 17.416 33.095 18.888 33.095 20.52H43.175ZM52.0809 33.48C51.8249 33.48 51.4249 33.432 50.8809 33.336C50.3689 33.24 49.9849 33.144 49.7289 33.048V31.848C51.5849 31.848 53.0889 30.744 54.2409 28.536C55.3929 26.328 55.9689 22.216 55.9689 16.2C55.9689 14.568 55.7289 13.368 55.2489 12.6C54.8009 11.8 53.9049 11.4 52.5609 11.4V10.44H72.0489V33H67.7289V12.36H59.2809V16.2C59.2809 22.76 58.6089 27.288 57.2649 29.784C55.9529 32.248 54.2249 33.48 52.0809 33.48ZM87.74 33.48C85.564 33.48 83.724 32.968 82.22 31.944C80.716 30.888 79.58 29.48 78.812 27.72C78.044 25.928 77.66 23.928 77.66 21.72C77.66 19.544 78.044 17.56 78.812 15.768C79.58 13.976 80.684 12.568 82.124 11.544C83.596 10.488 85.308 9.96 87.26 9.96C90.492 9.96 92.892 10.872 94.46 12.696C96.06 14.488 96.86 17.096 96.86 20.52L96.764 22.44H82.22C82.22 25.128 82.796 27.32 83.948 29.016C85.1 30.712 86.684 31.56 88.7 31.56C90.204 31.56 91.468 31.24 92.492 30.6C93.548 29.96 94.524 29 95.42 27.72L96.38 28.44C95.324 30.2 94.092 31.48 92.684 32.28C91.276 33.08 89.628 33.48 87.74 33.48ZM92.3 20.52C92.3 17.704 91.884 15.56 91.052 14.088C90.22 12.616 88.956 11.88 87.26 11.88C86.3 11.88 85.436 12.264 84.668 13.032C83.9 13.768 83.292 14.792 82.844 16.104C82.428 17.416 82.22 18.888 82.22 20.52H92.3ZM103.066 16.2C103.066 14.568 102.842 13.368 102.394 12.6C101.946 11.8 101.05 11.4 99.7055 11.4H98.9855V10.44H103.066C104.25 10.44 105.13 10.6 105.706 10.92C106.314 11.208 106.746 11.752 107.002 12.552C107.258 13.352 107.386 14.568 107.386 16.2V20.76H116.986V10.44H121.306V27.24C121.306 28.872 121.53 30.088 121.978 30.888C122.426 31.656 123.322 32.04 124.666 32.04H125.385V33H121.306C120.122 33 119.226 32.856 118.618 32.568C118.042 32.248 117.626 31.688 117.37 30.888C117.114 30.088 116.986 28.872 116.986 27.24V22.68H107.386V33H103.066V16.2ZM129.597 16.2C129.597 14.568 129.373 13.368 128.925 12.6C128.477 11.8 127.581 11.4 126.237 11.4H125.517V10.44H129.597C130.781 10.44 131.661 10.6 132.237 10.92C132.845 11.208 133.277 11.752 133.533 12.552C133.789 13.352 133.917 14.568 133.917 16.2V19.56H137.517C143.757 19.56 146.877 21.8 146.877 26.28C146.877 30.76 143.757 33 137.517 33H129.597V16.2ZM154.317 33C153.133 33 152.237 32.856 151.629 32.568C151.053 32.248 150.637 31.688 150.381 30.888C150.125 30.088 149.997 28.872 149.997 27.24V10.44H154.317V27.24C154.317 28.872 154.541 30.088 154.989 30.888C155.437 31.656 156.333 32.04 157.677 32.04H158.397V33H154.317ZM137.037 31.32C138.701 31.32 139.997 30.92 140.925 30.12C141.853 29.32 142.317 28.04 142.317 26.28C142.317 24.52 141.853 23.24 140.925 22.44C139.997 21.64 138.701 21.24 137.037 21.24C136.557 21.24 136.013 21.288 135.405 21.384C134.797 21.48 134.301 21.592 133.917 21.72V30.84C134.301 30.968 134.797 31.08 135.405 31.176C136.013 31.272 136.557 31.32 137.037 31.32ZM162.644 16.2C162.644 14.568 162.42 13.368 161.972 12.6C161.524 11.8 160.628 11.4 159.284 11.4H158.564V10.44H162.644C163.828 10.44 164.708 10.6 165.284 10.92C165.892 11.208 166.324 11.752 166.58 12.552C166.836 13.352 166.964 14.568 166.964 16.2V28.68L177.044 10.44H181.364V33H177.044V14.76L166.964 33H162.644V16.2ZM172.004 7.992C169.252 7.992 167.172 6.712 165.764 4.152L166.724 3.432C167.364 4.072 168.084 4.552 168.884 4.872C169.684 5.192 170.724 5.352 172.004 5.352C173.284 5.352 174.324 5.192 175.124 4.872C175.924 4.552 176.644 4.072 177.284 3.432L178.244 4.152C176.836 6.712 174.756 7.992 172.004 7.992ZM213.901 33.96C210.925 33.96 208.301 33.224 206.029 31.752C203.789 30.28 202.061 28.264 200.845 25.704C199.629 23.144 199.021 20.296 199.021 17.16C199.021 14.024 199.629 11.176 200.845 8.616C202.061 6.056 203.789 4.04 206.029 2.568C208.301 1.096 210.925 0.36 213.901 0.36C216.877 0.36 219.485 1.096 221.725 2.568C223.997 4.04 225.741 6.056 226.957 8.616C228.173 11.176 228.781 14.024 228.781 17.16C228.781 20.296 228.173 23.144 226.957 25.704C225.741 28.264 223.997 30.28 221.725 31.752C219.485 33.224 216.877 33.96 213.901 33.96ZM213.901 32.04C215.981 32.04 217.773 31.432 219.277 30.216C220.813 29 221.981 27.288 222.781 25.08C223.581 22.84 223.981 20.2 223.981 17.16C223.981 14.12 223.581 11.496 222.781 9.288C221.981 7.048 220.813 5.32 219.277 4.104C217.773 2.888 215.981 2.28 213.901 2.28C211.821 2.28 210.013 2.888 208.477 4.104C206.973 5.32 205.821 7.048 205.021 9.288C204.221 11.496 203.821 14.12 203.821 17.16C203.821 20.2 204.221 22.84 205.021 25.08C205.821 27.288 206.973 29 208.477 30.216C210.013 31.432 211.821 32.04 213.901 32.04ZM239.816 33.48C238.792 33.48 237.752 33.272 236.696 32.856C235.64 32.408 234.728 31.688 233.96 30.696C233.224 29.704 232.856 28.392 232.856 26.76C232.856 24.328 233.976 22.6 236.216 21.576C238.488 20.552 241.448 20.04 245.096 20.04H246.536C246.536 16.904 246.104 14.76 245.24 13.608C244.376 12.456 243.128 11.88 241.496 11.88C240.056 11.88 238.904 12.184 238.04 12.792C237.176 13.4 236.568 14.456 236.216 15.96H234.056C234.056 14.872 234.12 14.024 234.248 13.416C234.376 12.776 234.712 12.184 235.256 11.64C235.832 11.064 236.776 10.648 238.088 10.392C239.432 10.104 240.888 9.96 242.456 9.96C245.048 9.96 247.096 10.664 248.6 12.072C250.104 13.448 250.856 16.104 250.856 20.04V33H248.456L246.776 30.84H246.536C245.96 31.576 245.112 32.2 243.992 32.712C242.872 33.224 241.48 33.48 239.816 33.48ZM241.976 31.32C243.032 31.32 243.912 31.064 244.616 30.552C245.32 30.04 245.96 29.336 246.536 28.44V21.96H245.096C242.728 21.96 240.856 22.408 239.48 23.304C238.104 24.168 237.416 25.32 237.416 26.76C237.416 28.232 237.848 29.368 238.712 30.168C239.608 30.936 240.696 31.32 241.976 31.32ZM264.222 33.48C262.206 33.48 260.526 33.144 259.182 32.472C257.87 31.8 256.75 30.856 255.822 29.64L256.782 28.92C257.582 29.72 258.462 30.36 259.422 30.84C260.414 31.32 261.694 31.56 263.262 31.56C267.262 31.56 269.262 30.04 269.262 27C269.262 23.96 267.022 22.44 262.542 22.44H260.382V20.52H262.542C264.494 20.52 265.982 20.168 267.006 19.464C268.03 18.728 268.542 17.64 268.542 16.2C268.542 14.824 268.094 13.768 267.198 13.032C266.302 12.264 265.15 11.88 263.742 11.88C261.982 11.88 260.526 12.344 259.374 13.272C258.222 14.168 257.598 15.384 257.502 16.92H256.542C256.542 15.352 256.606 14.216 256.734 13.512C256.862 12.808 257.198 12.184 257.742 11.64C258.862 10.52 261.102 9.96 264.462 9.96C266.926 9.96 268.974 10.456 270.606 11.448C272.27 12.408 273.102 13.992 273.102 16.2C273.102 17.576 272.67 18.712 271.806 19.608C270.974 20.472 269.806 21.096 268.302 21.48C270.062 21.832 271.422 22.488 272.382 23.448C273.342 24.408 273.822 25.592 273.822 27C273.822 31.32 270.622 33.48 264.222 33.48ZM280.066 16.2C280.066 14.568 279.842 13.368 279.394 12.6C278.946 11.8 278.05 11.4 276.706 11.4H275.986V10.44H280.066C281.25 10.44 282.13 10.6 282.706 10.92C283.314 11.208 283.746 11.752 284.002 12.552C284.258 13.352 284.386 14.568 284.386 16.2V28.68L294.466 10.44H298.786V33H294.466V14.76L284.386 33H280.066V16.2ZM314.954 33.48C312.65 33.48 310.698 32.968 309.098 31.944C307.53 30.888 306.346 29.48 305.546 27.72C304.778 25.928 304.394 23.928 304.394 21.72C304.394 19.512 304.778 17.528 305.546 15.768C306.346 13.976 307.53 12.568 309.098 11.544C310.698 10.488 312.65 9.96 314.954 9.96C318.474 9.96 320.794 10.52 321.914 11.64C322.458 12.184 322.794 12.856 322.922 13.656C323.05 14.424 323.114 15.832 323.114 17.88H322.154C322.026 15.896 321.402 14.408 320.282 13.416C319.162 12.392 317.706 11.88 315.914 11.88C313.61 11.88 311.866 12.792 310.682 14.616C309.53 16.44 308.954 18.808 308.954 21.72C308.954 24.632 309.53 27 310.682 28.824C311.866 30.648 313.61 31.56 315.914 31.56C317.546 31.56 318.89 31.256 319.946 30.648C321.002 30.008 321.978 29.032 322.874 27.72L323.834 28.44C322.778 30.232 321.53 31.528 320.09 32.328C318.65 33.096 316.938 33.48 314.954 33.48Z" fill="#1D5222"/>
</svg>
